<?xml version="1.0" encoding="utf-8"?>
<svg xmlns="http://www.w3.org/2000/svg" style="margin: auto; display: block; shape-rendering: auto; animation-play-state: running; animation-delay: 0s;" width="267" height="96" preserveAspectRatio="xMidYMid">
<style type="text/css" style="animation-play-state: running; animation-delay: 0s;">
  text {
    text-anchor: middle; font-size: 73px; opacity: 0;
  }
</style>
<g style="transform-origin: 133.5px 48px; transform: scale(0.9125); animation-play-state: running; animation-delay: 0s;">
<g transform="translate(133.5,48)" style="animation-play-state: running; animation-delay: 0s;">
  <g transform="translate(0,0)" style="animation-play-state: running; animation-delay: 0s;"><g class="path" style="transform: scale(0.91); transform-origin: -94.51px -6.7224px; animation: 1s linear -0.495s infinite normal forwards running breath-9938f78b-8d88-48a8-b1ac-44512b1b926f;"><path d="M61.80-32.58L61.80-23.44L61.80-23.44Q61.80-18.32 60.02-14.02L60.02-14.02L60.02-14.02Q58.24-9.73 55.12-6.62L55.12-6.62L55.12-6.62Q51.99-3.52 47.70-1.76L47.70-1.76L47.70-1.76Q43.40 0 38.36 0L38.36 0L10.94 0L10.94 0Q9.84 0 8.91-0.39L8.91-0.39L8.91-0.39Q7.97-0.78 7.29-1.46L7.29-1.46L7.29-1.46Q6.60-2.15 6.21-3.09L6.21-3.09L6.21-3.09Q5.82-4.02 5.82-5.12L5.82-5.12L5.82-50.90L5.82-50.90Q5.82-51.95 6.21-52.89L6.21-52.89L6.21-52.89Q6.60-53.83 7.29-54.53L7.29-54.53L7.29-54.53Q7.97-55.23 8.91-55.63L8.91-55.63L8.91-55.63Q9.84-56.02 10.94-56.02L10.94-56.02L38.36-56.02L38.36-56.02Q43.40-56.02 47.70-54.26L47.70-54.26L47.70-54.26Q51.99-52.50 55.12-49.39L55.12-49.39L55.12-49.39Q58.24-46.29 60.02-41.97L60.02-41.97L60.02-41.97Q61.80-37.66 61.80-32.58L61.80-32.58zM51.64-23.44L51.64-32.58L51.64-32.58Q51.64-35.55 50.68-38.01L50.68-38.01L50.68-38.01Q49.73-40.47 47.97-42.21L47.97-42.21L47.97-42.21Q46.21-43.95 43.77-44.90L43.77-44.90L43.77-44.90Q41.33-45.86 38.36-45.86L38.36-45.86L15.98-45.86L15.98-10.16L38.36-10.16L38.36-10.16Q41.33-10.16 43.77-11.11L43.77-11.11L43.77-11.11Q46.21-12.07 47.97-13.81L47.97-13.81L47.97-13.81Q49.73-15.55 50.68-17.99L50.68-17.99L50.68-17.99Q51.64-20.43 51.64-23.44L51.64-23.44" fill="#655dd0" stroke="none" stroke-width="none" transform="translate(-128.31997680664062,21.287601623535156)" style="fill: rgb(101, 93, 208); animation-play-state: running; animation-delay: 0s;"></path></g><g class="path" style="transform: scale(0.91); transform-origin: -29.61px -6.7224px; animation: 1s linear -0.33s infinite normal forwards running breath-9938f78b-8d88-48a8-b1ac-44512b1b926f;"><path d="M126.72-50.90L126.72 0L116.56 0L116.56-13.75L80.86-13.75L80.86 0L70.70 0L70.70-28.01L70.70-28.01Q70.70-34.14 72.81-39.30L72.81-39.30L72.81-39.30Q74.92-44.45 78.67-48.16L78.67-48.16L78.67-48.16Q82.42-51.88 87.54-53.95L87.54-53.95L87.54-53.95Q92.66-56.02 98.71-56.02L98.71-56.02L121.60-56.02L121.60-56.02Q122.66-56.02 123.59-55.63L123.59-55.63L123.59-55.63Q124.53-55.23 125.23-54.53L125.23-54.53L125.23-54.53Q125.94-53.83 126.33-52.89L126.33-52.89L126.33-52.89Q126.72-51.95 126.72-50.90L126.72-50.90zM80.86-28.01L80.86-23.91L116.56-23.91L116.56-45.86L98.71-45.86L98.71-45.86Q98.24-45.86 96.74-45.72L96.74-45.72L96.74-45.72Q95.23-45.59 93.26-45.04L93.26-45.04L93.26-45.04Q91.29-44.49 89.10-43.36L89.10-43.36L89.10-43.36Q86.91-42.23 85.08-40.23L85.08-40.23L85.08-40.23Q83.24-38.24 82.05-35.25L82.05-35.25L82.05-35.25Q80.86-32.27 80.86-28.01L80.86-28.01" fill="#655dd0" stroke="none" stroke-width="none" transform="translate(-128.31997680664062,21.287601623535156)" style="fill: rgb(101, 93, 208); animation-play-state: running; animation-delay: 0s;"></path></g><g class="path" style="transform: scale(0.91); transform-origin: 34.16px -6.7224px; animation: 1s linear -0.165s infinite normal forwards running breath-9938f78b-8d88-48a8-b1ac-44512b1b926f;"><path d="M188.20-10.16L188.20 0L136.76 0L136.76-18.79L136.76-18.79Q136.76-20.23 137.09-21.86L137.09-21.86L137.09-21.86Q137.42-23.48 138.13-25.08L138.13-25.08L138.13-25.08Q138.83-26.68 139.94-28.13L139.94-28.13L139.94-28.13Q141.05-29.57 142.64-30.68L142.64-30.68L142.64-30.68Q144.22-31.80 146.29-32.46L146.29-32.46L146.29-32.46Q148.36-33.13 150.98-33.13L150.98-33.13L173.87-33.13L173.87-33.13Q175.94-33.13 176.93-34.16L176.93-34.16L176.93-34.16Q177.93-35.20 177.93-37.19L177.93-37.19L177.93-41.68L177.93-41.68Q177.93-43.75 176.91-44.80L176.91-44.80L176.91-44.80Q175.90-45.86 173.95-45.86L173.95-45.86L141.33-45.86L141.33-56.02L173.95-56.02L173.95-56.02Q176.52-56.02 178.59-55.35L178.59-55.35L178.59-55.35Q180.66-54.69 182.25-53.57L182.25-53.57L182.25-53.57Q183.83-52.46 184.96-51.02L184.96-51.02L184.96-51.02Q186.09-49.57 186.82-47.99L186.82-47.99L186.82-47.99Q187.54-46.41 187.87-44.79L187.87-44.79L187.87-44.79Q188.20-43.16 188.20-41.76L188.20-41.76L188.20-37.19L188.20-37.19Q188.20-33.24 186.78-30.53L186.78-30.53L186.78-30.53Q185.35-27.81 183.20-26.11L183.20-26.11L183.20-26.11Q181.05-24.41 178.57-23.65L178.57-23.65L178.57-23.65Q176.09-22.89 173.95-22.89L173.95-22.89L150.98-22.89L150.98-22.89Q149.73-22.89 148.98-22.54L148.98-22.54L148.98-22.54Q148.24-22.19 147.83-21.60L147.83-21.60L147.83-21.60Q147.42-21.02 147.23-20.27L147.23-20.27L147.23-20.27Q147.03-19.53 146.91-18.79L146.91-18.79L146.91-10.16L188.20-10.16" fill="#655dd0" stroke="none" stroke-width="none" transform="translate(-128.31997680664062,21.287601623535156)" style="fill: rgb(101, 93, 208); animation-play-state: running; animation-delay: 0s;"></path></g><g class="path" style="transform: scale(0.91); transform-origin: 101.545px -6.7224px; animation: 1s linear 0s infinite normal forwards running breath-9938f78b-8d88-48a8-b1ac-44512b1b926f;"><path d="M262.46-32.58L262.46-23.44L262.46-23.44Q262.46-20 261.58-16.93L261.58-16.93L261.58-16.93Q260.70-13.87 259.10-11.25L259.10-11.25L259.10-11.25Q257.50-8.63 255.31-6.56L255.31-6.56L255.31-6.56Q253.13-4.49 250.53-3.03L250.53-3.03L250.53-3.03Q247.93-1.56 245-0.78L245-0.78L245-0.78Q242.07 0 239.02 0L239.02 0L220.70 0L220.70 0Q217.62 0 214.69-0.78L214.69-0.78L214.69-0.78Q211.76-1.56 209.16-3.03L209.16-3.03L209.16-3.03Q206.56-4.49 204.38-6.56L204.38-6.56L204.38-6.56Q202.19-8.63 200.61-11.25L200.61-11.25L200.61-11.25Q199.02-13.87 198.14-16.93L198.14-16.93L198.14-16.93Q197.27-20 197.27-23.44L197.27-23.44L197.27-32.58L197.27-32.58Q197.27-37.73 199.20-42.03L199.20-42.03L199.20-42.03Q201.13-46.33 204.38-49.43L204.38-49.43L204.38-49.43Q207.62-52.54 211.86-54.28L211.86-54.28L211.86-54.28Q216.09-56.02 220.70-56.02L220.70-56.02L239.02-56.02L239.02-56.02Q242.07-56.02 245-55.23L245-55.23L245-55.23Q247.93-54.45 250.53-52.99L250.53-52.99L250.53-52.99Q253.13-51.52 255.31-49.45L255.31-49.45L255.31-49.45Q257.50-47.38 259.10-44.77L259.10-44.77L259.10-44.77Q260.70-42.15 261.58-39.08L261.58-39.08L261.58-39.08Q262.46-36.02 262.46-32.58L262.46-32.58zM252.23-23.44L252.23-32.58L252.23-32.58Q252.23-35.59 251.13-38.05L251.13-38.05L251.13-38.05Q250.04-40.51 248.22-42.27L248.22-42.27L248.22-42.27Q246.41-44.02 244.02-44.96L244.02-44.96L244.02-44.96Q241.64-45.90 239.02-45.86L239.02-45.86L220.70-45.86L220.70-45.86Q218.16-45.90 215.76-44.98L215.76-44.98L215.76-44.98Q213.36-44.06 211.50-42.32L211.50-42.32L211.50-42.32Q209.65-40.59 208.54-38.11L208.54-38.11L208.54-38.11Q207.42-35.63 207.42-32.58L207.42-32.58L207.42-23.44L207.42-23.44Q207.42-20.39 208.52-17.93L208.52-17.93L208.52-17.93Q209.61-15.47 211.45-13.73L211.45-13.73L211.45-13.73Q213.28-11.99 215.68-11.05L215.68-11.05L215.68-11.05Q218.09-10.12 220.70-10.16L220.70-10.16L239.02-10.16L239.02-10.16Q242.03-10.16 244.47-11.15L244.47-11.15L244.47-11.15Q246.91-12.15 248.63-13.91L248.63-13.91L248.63-13.91Q250.35-15.66 251.29-18.11L251.29-18.11L251.29-18.11Q252.23-20.55 252.23-23.44L252.23-23.44zM247.81-40L247.81-40L247.81-40Q248.40-39.14 248.59-38.14L248.59-38.14L248.59-38.14Q248.79-37.15 248.59-36.19L248.59-36.19L248.59-36.19Q248.40-35.23 247.83-34.39L247.83-34.39L247.83-34.39Q247.27-33.55 246.37-32.97L246.37-32.97L218.95-14.65L218.95-14.65Q218.28-14.14 217.58-13.95L217.58-13.95L217.58-13.95Q216.88-13.75 216.13-13.75L216.13-13.75L216.13-13.75Q214.88-13.75 213.75-14.34L213.75-14.34L213.75-14.34Q212.62-14.92 211.91-16.02L211.91-16.02L211.91-16.02Q211.33-16.88 211.13-17.87L211.13-17.87L211.13-17.87Q210.94-18.87 211.11-19.82L211.11-19.82L211.11-19.82Q211.29-20.78 211.84-21.62L211.84-21.62L211.84-21.62Q212.38-22.46 213.28-23.05L213.28-23.05L240.78-41.37L240.78-41.37Q241.64-41.95 242.64-42.15L242.64-42.15L242.64-42.15Q243.63-42.34 244.59-42.15L244.59-42.15L244.59-42.15Q245.55-41.95 246.39-41.41L246.39-41.41L246.39-41.41Q247.23-40.86 247.81-40" fill="#655dd0" stroke="none" stroke-width="none" transform="translate(-128.31997680664062,21.287601623535156)" style="fill: rgb(101, 93, 208); animation-play-state: running; animation-delay: 0s;"></path></g></g>
</g>
</g>
<style id="breath-9938f78b-8d88-48a8-b1ac-44512b1b926f" data-anikit="">@keyframes breath-9938f78b-8d88-48a8-b1ac-44512b1b926f
{
  0% {
    animation-timing-function: cubic-bezier(0.9647,0.2413,-0.0705,0.7911);
    transform: scale(0.9099999999999999);
  }
  51% {
    animation-timing-function: cubic-bezier(0.9226,0.2631,-0.0308,0.7628);
    transform: scale(1.02994);
  }
  100% {
    transform: scale(0.9099999999999999);
  }
}</style></svg>